<svg xmlns="http://www.w3.org/2000/svg" width="600" height="65" viewBox="0 0 600 65"><style type="text/css">.st0{fill:#00D6B4;} .st1{fill:#FFFFFF;} .st2{opacity:0.3;fill:#1D2730;}</style><path class="st0" d="M274.7 22.5h12.4v42.3h-12.4zM263.1 31.8h44.6v12.4h-44.6z"/><path class="st1" d="M265.9 44.2l21.2-21.4v-16.9l-38.4 38.3z"/><path class="st2" d="M274.7 44.2h12.4l-12.4 5.7z"/><path class="st0" d="M364.2 62.5c-5.1 1.6-7.4 1.9-11.4 1.9-10.3 0-17-7.3-17-18.3v-15.1h-9v-10.3h9v-15.2h12.2v15.2h15.3v10.3h-15.3v15.1c0 4.8 2.9 7 7.4 7 2.3 0 4.8-.5 7.2-1.2l1.6 10.6zM417.5 63.1h-12.3v-2.5c-3.3 2.1-7.3 3.4-12.1 3.4-11.7 0-21.2-9.7-21.2-22.1 0-12.5 9.5-22.2 21.2-22.2 4.8 0 8.8 1.2 12.1 3.4v-2.5h12.3v42.5zm-12.3-14.4v-13.6c-2.7-3.7-6.4-5-10-5-6.5 0-11 5.5-11 11.8 0 6.2 4.5 11.6 11 11.6 3.6 0 7.3-1.2 10-4.8zM444.2 63.1h-12.3v-62.9h12.3v62.9zM499.4 46.4h-30.9c1.2 4.3 4.5 7.5 10.6 7.5 3.5 0 5.8-1.1 7.2-3.2h12.9c-2.3 8.2-10.3 13.4-20.3 13.4-13.6 0-22.8-9.5-22.8-22.2 0-12.8 9-22.2 22.6-22.2 12 0 21 8.6 21 21.3 0 1.8 0 3.6-.3 5.4zm-31.1-8.6h19.1c-.7-5-4-7.9-9.1-7.9-5.6 0-8.8 3.3-10 7.9zM554.3 39.8v23.3h-12.3v-22.2c0-6.7-3.4-10.4-9.1-10.4-3.1 0-6.5 1.9-9.3 5.3v27.3h-12.3v-42.4h12.3v3c3.5-2.7 7.4-4.3 12.1-4.3 11.1-.1 18.6 8 18.6 20.4zM600 62.5c-5.1 1.6-7.4 1.9-11.4 1.9-10.3 0-17-7.3-17-18.3v-15.1h-9v-10.3h9v-15.2h12.2v15.2h15.3v10.3h-15.3v15.1c0 4.8 2.9 7 7.4 7 2.3 0 4.8-.5 7.2-1.2l1.6 10.6z"/><path class="st1" d="M37.4 62.5c-5.1 1.6-7.4 1.9-11.4 1.9-10.3 0-17-7.3-17-18.3v-15.1h-9v-10.3h9v-15.2h12.2v15.2h15.3v10.3h-15.3v15.1c0 4.8 2.9 7 7.4 7 2.3 0 4.8-.5 7.2-1.2l1.6 10.6zM88.5 46.4h-30.9c1.2 4.3 4.5 7.5 10.6 7.5 3.5 0 5.8-1.1 7.2-3.2h12.9c-2.3 8.2-10.3 13.4-20.3 13.4-13.6 0-22.8-9.5-22.8-22.2 0-12.8 9-22.2 22.6-22.2 12 0 21 8.6 21 21.3 0 1.8 0 3.6-.3 5.4zm-31.1-8.6h19.1c-.7-5-4-7.9-9.1-7.9-5.6 0-8.8 3.3-10 7.9zM144.3 63.1h-12.3v-2.5c-3.3 2.1-7.3 3.4-12.1 3.4-11.7 0-21.2-9.7-21.2-22.1 0-12.5 9.5-22.2 21.2-22.2 4.8 0 8.8 1.2 12.1 3.4v-2.5h12.3v42.5zm-12.3-14.4v-13.6c-2.7-3.7-6.4-5-10-5-6.5 0-11 5.5-11 11.8 0 6.2 4.5 11.6 11 11.6 3.6 0 7.2-1.2 10-4.8zM228.9 39.8v23.3h-12.3v-22.2c0-6.7-3.3-10.4-9-10.4-2.6 0-5.4 1.2-8 4.7.2 1.5.4 3 .4 4.6v23.3h-12.3v-22.2c0-6.7-3.3-10.4-9.1-10.4-2.4 0-5.1 1.4-7.5 4.8v27.8h-12.3v-42.4h12.3v2.6c2.7-2.5 5.5-3.9 10.5-3.9 5.4 0 10.2 2.1 13.6 6 4.5-4.2 8.8-6 15.4-6 10.2-.1 18.3 8 18.3 20.4z"/></svg>